<svg width="24" height="24" viewBox="0 0 24 24" xmlns="http://www.w3.org/2000/svg" xmlns:xlink="http://www.w3.org/1999/xlink">
    <g id="locationonblack24dp">
        <path id="Pfad" fill="#0070f3" fill-rule="evenodd" stroke="none" d="M 11.733334 3.24762 L 7.533333 5.390476 L 6.247619 9.419047 L 8.304762 15.333333 L 12.333333 20.476191 L 16.361904 15.847619 L 18.419048 8.904762 L 17.219048 5.647619 L 11.733334 3.24762 Z"/>
        <path id="path1" fill="#32386d" stroke="none" d="M 12.333333 2.333334 C 8.463333 2.333334 5.333333 5.463335 5.333333 9.333333 C 5.333333 14.583333 12.333333 22.333334 12.333333 22.333334 C 12.333333 22.333334 19.333334 14.583333 19.333334 9.333333 C 19.333334 5.463335 16.203333 2.333334 12.333333 2.333334 Z M 7.333333 9.333333 C 7.333333 6.573334 9.573333 4.333334 12.333333 4.333334 C 15.093333 4.333334 17.333334 6.573334 17.333334 9.333333 C 17.333334 12.213333 14.453333 16.523335 12.333333 19.213333 C 10.253333 16.543333 7.333333 12.183333 7.333333 9.333333 Z"/>
        <path id="path2" fill="#32386d" stroke="none" d="M 14.833333 9.333333 C 14.833333 10.714045 13.714045 11.833333 12.333333 11.833333 C 10.952621 11.833333 9.833333 10.714045 9.833333 9.333333 C 9.833333 7.952621 10.952621 6.833334 12.333333 6.833334 C 13.714045 6.833334 14.833333 7.952621 14.833333 9.333333 Z"/>
    </g>
</svg>
